<svg width="293" height="48" viewBox="0 0 293 48" fill="none" xmlns="http://www.w3.org/2000/svg">
<path d="M10.3281 32.3516C7.70312 29.0547 6.39062 24.3047 6.39062 18.1016C6.39062 12.1797 7.89844 7.60156 10.9141 4.36719C5.72656 7.10156 3.13281 11.9688 3.13281 18.9688C3.13281 23.8594 4.46875 27.5625 7.14062 30.0781C8.04688 30.9219 9.10938 31.6797 10.3281 32.3516ZM18.5781 0.148438C22.9688 0.148438 26.4297 1.65625 28.9609 4.67188L30.25 0.96875C30.4531 0.421875 30.7891 0.148438 31.2578 0.148438C31.7422 0.148438 32.0938 0.289062 32.3125 0.570312C32.5312 0.835937 32.6406 1.04688 32.6406 1.20312C32.6406 1.4375 32.6094 1.63281 32.5469 1.78906L28.8203 12.6875C28.6484 13.2188 28.3203 13.4844 27.8359 13.4844C27.3516 13.4844 26.9922 13.3594 26.7578 13.1094C26.5234 12.8438 26.4062 12.625 26.4062 12.4531C26.4062 12.2188 26.4375 12.0234 26.5 11.8672L28 7.48438C26.6562 5.40625 24.875 3.96094 22.6562 3.14844C21.9219 2.88281 21.1875 2.75 20.4531 2.75C16.8281 2.75 13.9688 4.25 11.875 7.25C9.89062 10.0938 8.89844 13.7109 8.89844 18.1016C8.89844 21.7422 9.51562 25.0703 10.75 28.0859C11.6875 30.4297 13 32.0938 14.6875 33.0781C15.5625 33.5938 16.7578 33.8516 18.2734 33.8516C19.8047 33.8516 21.2578 33.6172 22.6328 33.1484C24.0078 32.6797 25.1406 32.0625 26.0312 31.2969C27.75 29.7969 28.6094 27.9141 28.6094 25.6484C28.6094 24.0547 28.1875 22.7188 27.3438 21.6406C26.7969 20.9219 26.1641 20.3984 25.4453 20.0703C23.4766 20.3359 21.8438 20.7812 20.5469 21.4062C20.3125 21.5156 20.1484 21.6016 20.0547 21.6641C19.9609 21.7266 19.7656 21.7578 19.4688 21.7578C19.1875 21.7578 18.9297 21.6328 18.6953 21.3828C18.4609 21.1172 18.3438 20.7969 18.3438 20.4219C18.3438 20.0312 18.5547 19.7031 18.9766 19.4375C19.0234 19.4219 19.2734 19.3047 19.7266 19.0859C20.1797 18.8672 20.8125 18.625 21.625 18.3594C23.75 17.7031 25.8516 17.375 27.9297 17.375C30.0234 17.375 32.0312 17.5391 33.9531 17.8672C34.2344 17.9141 34.4688 18.0547 34.6562 18.2891C34.8594 18.5078 34.9609 18.7969 34.9609 19.1562C34.9609 19.5 34.8203 19.7812 34.5391 20C34.2578 20.2031 34.0234 20.3047 33.8359 20.3047C33.6484 20.3047 33.3438 20.2656 32.9219 20.1875C32.2188 20.0312 30.9297 19.9141 29.0547 19.8359C30.4297 21.4297 31.1172 23.3828 31.1172 25.6953C31.1172 29.1953 29.6406 31.9062 26.6875 33.8281C24.0781 35.5 21.0703 36.3359 17.6641 36.3359C12.3672 36.1797 8.21094 34.5781 5.19531 31.5312C2.17969 28.4844 0.671875 24.2969 0.671875 18.9688C0.671875 14.5 1.60938 10.7656 3.48438 7.76562C5.07812 5.17188 7.34375 3.20312 10.2812 1.85938C12.7969 0.71875 15.5625 0.148438 18.5781 0.148438ZM46.4453 4.22656C45.6484 4.35156 44.5703 4.41406 43.2109 4.41406H43.0234V32.0703C43.3203 32.0391 43.6094 32.0234 43.8906 32.0234C44.4531 32.0234 44.9453 32.0234 45.3672 32.0234C45.7891 32.0234 46.1484 32.0391 46.4453 32.0703V4.22656ZM48.9297 14.7031C50.7109 11.9531 53.1406 10.5781 56.2188 10.5781C59.25 10.5781 61.5 11.6797 62.9688 13.8828C64.2344 15.7578 64.8672 18.2578 64.8672 21.3828C64.8672 24.4922 64.4531 28.0078 63.625 31.9297C64.6094 31.9297 65.4062 31.9766 66.0156 32.0703C67.0469 32.2266 67.5625 32.6562 67.5625 33.3594C67.5625 33.7031 67.4297 34 67.1641 34.25C66.8984 34.5 66.6719 34.625 66.4844 34.625C66.2969 34.625 66.0625 34.5938 65.7812 34.5312C63.8281 34.1719 61.2969 34.2656 58.1875 34.8125C58.1562 34.8438 58.125 34.8594 58.0938 34.8594C58.0625 34.8594 57.9453 34.8594 57.7422 34.8594C57.5547 34.8594 57.3438 34.7344 57.1094 34.4844C56.875 34.2188 56.7578 33.9375 56.7578 33.6406C56.7578 32.9531 57.0938 32.5391 57.7656 32.3984C58.875 32.1641 59.9922 32.0234 61.1172 31.9766C61.9766 28.0234 62.4062 24.6484 62.4062 21.8516C62.4062 17.6484 61.3672 14.9375 59.2891 13.7188C58.4922 13.25 57.6016 13.0156 56.6172 13.0156C55.6484 13.0156 54.8438 13.1484 54.2031 13.4141C53.5781 13.6797 52.9922 14.0391 52.4453 14.4922C51.9141 14.9297 51.4297 15.4453 50.9922 16.0391C50.5547 16.6328 50.1875 17.25 49.8906 17.8906C49.25 19.25 48.9297 20.5547 48.9297 21.8047L48.8828 32.2578C49.8359 32.3359 50.7031 32.4609 51.4844 32.6328C52.2812 32.7891 52.7734 32.9844 52.9609 33.2188C53.1484 33.4375 53.2422 33.7109 53.2422 34.0391C53.2422 34.3672 53.1094 34.6406 52.8438 34.8594C52.5938 35.0781 52.3125 35.1875 52 35.1875H51.7656C49.1562 34.7031 46.8203 34.4609 44.7578 34.4609C42.6953 34.4609 40.375 34.7031 37.7969 35.1875H37.5625C37.2031 35.1875 36.9062 35.0703 36.6719 34.8359C36.4531 34.5859 36.3438 34.3125 36.3438 34.0156C36.3438 33.7031 36.4297 33.4375 36.6016 33.2188C36.7891 32.9844 37.0859 32.8281 37.4922 32.75C37.9141 32.6562 38.3984 32.5703 38.9453 32.4922C39.5078 32.4141 40.0547 32.3359 40.5859 32.2578V4.32031L36.9766 4.03906C36.6641 3.99219 36.4062 3.85156 36.2031 3.61719C36.0156 3.38281 35.9219 3.09375 35.9219 2.75C35.9219 2.39062 36.0625 2.10938 36.3438 1.90625C36.625 1.70312 36.8984 1.60156 37.1641 1.60156H37.3047C37.3203 1.60156 37.5 1.625 37.8438 1.67188C38.1875 1.70312 38.6406 1.74219 39.2031 1.78906C40.6719 1.91406 42.0234 1.97656 43.2578 1.97656C44.9766 1.97656 46.375 1.85156 47.4531 1.60156H47.6875C48.0469 1.60156 48.3438 1.72656 48.5781 1.97656C48.8125 2.21094 48.9297 2.48438 48.9297 2.79688V14.7031ZM79.9609 14.5625C79.1641 14.6875 78.0938 14.75 76.75 14.75H76.5625V32.3984C76.8594 32.3672 77.1484 32.3516 77.4297 32.3516C77.9922 32.3516 78.4844 32.3516 78.9062 32.3516C79.3281 32.3516 79.6797 32.3672 79.9609 32.3984V14.5625ZM79.6797 4.76562C79.6797 4.28125 79.5078 3.875 79.1641 3.54688C78.8359 3.20312 78.4297 3.03125 77.9453 3.03125C77.4609 3.03125 77.0547 3.20312 76.7266 3.54688C76.3984 3.875 76.2344 4.28125 76.2344 4.76562C76.2344 5.25 76.3984 5.65625 76.7266 5.98438C77.0547 6.3125 77.4609 6.47656 77.9453 6.47656C78.4297 6.47656 78.8359 6.3125 79.1641 5.98438C79.5078 5.65625 79.6797 5.25 79.6797 4.76562ZM85.5391 35.5859C82.9609 35.0703 80.5547 34.8125 78.3203 34.8125C76.0859 34.8125 73.6797 35.0703 71.1016 35.5859C70.7422 35.5859 70.4453 35.4531 70.2109 35.1875C69.9922 34.9219 69.8828 34.6406 69.8828 34.3438C69.8828 34.0469 69.9688 33.7812 70.1406 33.5469C70.3281 33.3125 70.625 33.1562 71.0312 33.0781C71.4531 32.9844 71.9375 32.9062 72.4844 32.8438C73.0469 32.7656 73.5938 32.6875 74.125 32.6094V14.6562L70.5156 14.3516C70.2031 14.3047 69.9453 14.1641 69.7422 13.9297C69.5547 13.6953 69.4609 13.4062 69.4609 13.0625C69.4609 12.7031 69.6016 12.4219 69.8828 12.2188C70.1641 12.0156 70.4375 11.9141 70.7031 11.9141H70.8438C70.8594 11.9141 71.0391 11.9375 71.3828 11.9844C71.7266 12.0156 72.1719 12.0547 72.7188 12.1016C74.2031 12.2266 75.5625 12.2891 76.7969 12.2891C78.5156 12.2891 79.9062 12.1641 80.9688 11.9141H81.2266C81.5859 11.9141 81.8828 12.0391 82.1172 12.2891C82.3516 12.5234 82.4688 12.7969 82.4688 13.1094L82.4219 32.6094C82.9688 32.6875 83.5156 32.7656 84.0625 32.8438C84.625 32.9062 85.125 32.9844 85.5625 33.0781C86.375 33.2344 86.7812 33.6484 86.7812 34.3203C86.7812 34.6797 86.6484 34.9766 86.3828 35.2109C86.1172 35.4609 85.8359 35.5859 85.5391 35.5859ZM82.1406 4.76562C82.1406 5.9375 81.7344 6.92188 80.9219 7.71875C80.0781 8.53125 79.0859 8.9375 77.9453 8.9375C76.7891 8.9375 75.8047 8.53125 74.9922 7.71875C74.1797 6.90625 73.7734 5.92188 73.7734 4.76562C73.7734 3.60938 74.1797 2.625 74.9922 1.8125C75.8047 1 76.7891 0.59375 77.9453 0.59375C79.0859 0.59375 80.0781 1 80.9219 1.8125C81.7344 2.60938 82.1406 3.59375 82.1406 4.76562ZM92.7344 4.17969L92.6172 17.7266C92.6172 21.7109 92.6484 24.3984 92.7109 25.7891C92.7891 27.1641 93.0234 28.3438 93.4141 29.3281C93.8047 30.3125 94.3438 31.1719 95.0312 31.9062C96.4844 33.4531 98.3203 34.2578 100.539 34.3203C97.7578 32.6328 96.3203 29.5312 96.2266 25.0156C96.1641 23.2344 96.1328 21.125 96.1328 18.6875C96.1328 16.2344 96.1406 13.7109 96.1562 11.1172C96.1719 8.52344 96.1797 6.03906 96.1797 3.66406C95.2109 3.89844 94.0625 4.07031 92.7344 4.17969ZM111.625 22.4375C111.625 21.2031 111.516 20.0547 111.297 18.9922C111.078 17.9141 110.719 16.9766 110.219 16.1797C109.172 14.4609 107.547 13.6016 105.344 13.6016C103.594 13.6016 102 14.3984 100.562 15.9922C99.3594 17.2891 98.6953 18.4375 98.5703 19.4375C98.5703 23.8438 98.7188 26.6484 99.0156 27.8516C99.3125 29.0391 99.6953 29.9844 100.164 30.6875C101.164 32.1875 102.602 32.9375 104.477 32.9375C106.82 32.9375 108.641 31.8125 109.938 29.5625C111.062 27.6094 111.625 25.2344 111.625 22.4375ZM90.2734 25.9531C90.2109 24.2188 90.1797 20.7969 90.1797 15.6875C90.1797 10.5781 90.2109 6.77344 90.2734 4.27344C88.9766 4.27344 87.9219 4.21875 87.1094 4.10938C86.2969 4 85.7969 3.92969 85.6094 3.89844C85.4219 3.85156 85.2344 3.71094 85.0469 3.47656C84.8594 3.24219 84.7656 3.00781 84.7656 2.77344C84.7656 2.52344 84.8125 2.32031 84.9062 2.16406C84.9844 2.00781 85.0859 1.875 85.2109 1.76562C85.4609 1.54688 85.6641 1.4375 85.8203 1.4375H86.1016C86.1328 1.4375 86.1641 1.44531 86.1953 1.46094C86.2109 1.47656 86.3281 1.5 86.5469 1.53125C86.7656 1.5625 87.0625 1.59375 87.4375 1.625C88.4062 1.73438 89.3906 1.78906 90.3906 1.78906C92.8906 1.78906 95.125 1.5 97.0938 0.921875C97.2188 0.859375 97.3906 0.828125 97.6094 0.828125C97.8438 0.828125 98.0781 0.960938 98.3125 1.22656C98.5625 1.47656 98.6875 1.75781 98.6875 2.07031V2.11719C98.6875 2.13281 98.6797 2.48438 98.6641 3.17188C98.6484 3.84375 98.6328 4.75 98.6172 5.89062C98.6172 7.01562 98.6094 8.32031 98.5938 9.80469C98.5781 11.2891 98.5703 12.8359 98.5703 14.4453C99.6797 12.8828 101.242 11.8594 103.258 11.375C103.914 11.2188 104.797 11.1406 105.906 11.1406C107.031 11.1406 108.148 11.4375 109.258 12.0312C110.367 12.6094 111.281 13.4062 112 14.4219C113.391 16.4219 114.086 19.0859 114.086 22.4141C114.086 26.5391 112.953 29.9297 110.688 32.5859C108.297 35.3828 105.094 36.7812 101.078 36.7812C98.0781 36.7812 95.5625 35.7891 93.5312 33.8047C91.4688 31.8047 90.3828 29.1875 90.2734 25.9531ZM126.531 3.85156C125.516 3.94531 124.445 3.99219 123.32 3.99219H123.133V32.3047H126.531V3.85156ZM120.695 3.94531L117.812 3.61719C117.5 3.57031 117.242 3.42969 117.039 3.19531C116.852 2.96094 116.758 2.67188 116.758 2.32812C116.758 1.96875 116.898 1.6875 117.18 1.48438C117.461 1.26562 117.734 1.15625 118 1.15625H118.141C118.156 1.15625 118.297 1.17969 118.562 1.22656C118.828 1.25781 119.188 1.29688 119.641 1.34375C120.766 1.48438 122.008 1.55469 123.367 1.55469C125.039 1.55469 126.164 1.49219 126.742 1.36719C127.32 1.22656 127.727 1.15625 127.961 1.15625C128.211 1.15625 128.453 1.28906 128.688 1.55469C128.922 1.80469 129.039 2.08594 129.039 2.39844L128.992 32.5625C129.43 32.6094 129.773 32.6562 130.023 32.7031C130.289 32.7344 130.508 32.7656 130.68 32.7969C130.867 32.8125 131.102 32.8516 131.383 32.9141C131.68 32.9766 131.922 33.1172 132.109 33.3359C132.297 33.5547 132.391 33.8281 132.391 34.1562C132.391 34.4688 132.258 34.7422 131.992 34.9766C131.742 35.2109 131.461 35.3281 131.148 35.3281H130.914C126.586 34.5625 122.312 34.5781 118.094 35.375H117.859C117.469 35.375 117.172 35.25 116.969 35C116.766 34.7656 116.664 34.4922 116.664 34.1797C116.664 33.5234 116.984 33.1094 117.625 32.9375C118.562 32.7812 119.586 32.6562 120.695 32.5625V3.94531ZM144.742 14.5625C143.945 14.6875 142.875 14.75 141.531 14.75H141.344V32.3984C141.641 32.3672 141.93 32.3516 142.211 32.3516C142.773 32.3516 143.266 32.3516 143.688 32.3516C144.109 32.3516 144.461 32.3672 144.742 32.3984V14.5625ZM144.461 4.76562C144.461 4.28125 144.289 3.875 143.945 3.54688C143.617 3.20312 143.211 3.03125 142.727 3.03125C142.242 3.03125 141.836 3.20312 141.508 3.54688C141.18 3.875 141.016 4.28125 141.016 4.76562C141.016 5.25 141.18 5.65625 141.508 5.98438C141.836 6.3125 142.242 6.47656 142.727 6.47656C143.211 6.47656 143.617 6.3125 143.945 5.98438C144.289 5.65625 144.461 5.25 144.461 4.76562ZM150.32 35.5859C147.742 35.0703 145.336 34.8125 143.102 34.8125C140.867 34.8125 138.461 35.0703 135.883 35.5859C135.523 35.5859 135.227 35.4531 134.992 35.1875C134.773 34.9219 134.664 34.6406 134.664 34.3438C134.664 34.0469 134.75 33.7812 134.922 33.5469C135.109 33.3125 135.406 33.1562 135.812 33.0781C136.234 32.9844 136.719 32.9062 137.266 32.8438C137.828 32.7656 138.375 32.6875 138.906 32.6094V14.6562L135.297 14.3516C134.984 14.3047 134.727 14.1641 134.523 13.9297C134.336 13.6953 134.242 13.4062 134.242 13.0625C134.242 12.7031 134.383 12.4219 134.664 12.2188C134.945 12.0156 135.219 11.9141 135.484 11.9141H135.625C135.641 11.9141 135.82 11.9375 136.164 11.9844C136.508 12.0156 136.953 12.0547 137.5 12.1016C138.984 12.2266 140.344 12.2891 141.578 12.2891C143.297 12.2891 144.688 12.1641 145.75 11.9141H146.008C146.367 11.9141 146.664 12.0391 146.898 12.2891C147.133 12.5234 147.25 12.7969 147.25 13.1094L147.203 32.6094C147.75 32.6875 148.297 32.7656 148.844 32.8438C149.406 32.9062 149.906 32.9844 150.344 33.0781C151.156 33.2344 151.562 33.6484 151.562 34.3203C151.562 34.6797 151.43 34.9766 151.164 35.2109C150.898 35.4609 150.617 35.5859 150.32 35.5859ZM146.922 4.76562C146.922 5.9375 146.516 6.92188 145.703 7.71875C144.859 8.53125 143.867 8.9375 142.727 8.9375C141.57 8.9375 140.586 8.53125 139.773 7.71875C138.961 6.90625 138.555 5.92188 138.555 4.76562C138.555 3.60938 138.961 2.625 139.773 1.8125C140.586 1 141.57 0.59375 142.727 0.59375C143.867 0.59375 144.859 1 145.703 1.8125C146.516 2.60938 146.922 3.59375 146.922 4.76562ZM160.773 44.7031L162.297 44.75L162.344 14.0703C161.328 14.1641 160.305 14.2109 159.273 14.2109H158.898V44.75L160.773 44.7031ZM179.148 27.4531C179.43 26.6094 179.633 25.7578 179.758 24.8984C179.898 24.0234 179.961 23.125 179.945 22.2031C179.945 21.2656 179.789 20.2734 179.477 19.2266C179.164 18.1641 178.703 17.2188 178.094 16.3906C176.75 14.5312 175.023 13.6016 172.914 13.6016C171.367 13.6016 169.922 14.2578 168.578 15.5703C166.828 17.3047 165.656 19.6094 165.062 22.4844C164.891 23.3125 164.805 24.0781 164.805 24.7812V29.5391C165.148 30.8828 166.023 31.9531 167.43 32.75C168.633 33.4219 169.875 33.7578 171.156 33.7578C172.438 33.7578 173.484 33.5859 174.297 33.2422C175.125 32.8984 175.852 32.4375 176.477 31.8594C177.102 31.2812 177.633 30.6172 178.07 29.8672C178.508 29.1016 178.867 28.2969 179.148 27.4531ZM156.461 14.1172L153.484 13.8359C153.172 13.7891 152.914 13.6484 152.711 13.4141C152.508 13.1797 152.406 12.8906 152.406 12.5469C152.406 12.2031 152.547 11.9219 152.828 11.7031C153.125 11.4844 153.406 11.375 153.672 11.375H153.812C153.828 11.375 153.992 11.3984 154.305 11.4453C154.617 11.4766 155.031 11.5156 155.547 11.5625C156.766 11.7031 157.875 11.7734 158.875 11.7734C160.719 11.7734 161.93 11.7109 162.508 11.5859C163.102 11.4453 163.516 11.375 163.75 11.375C163.984 11.375 164.219 11.5078 164.453 11.7734C164.688 12.0391 164.805 12.3281 164.805 12.6406V16.4609C165.742 14.8203 166.898 13.5234 168.273 12.5703C169.664 11.6172 171.164 11.1406 172.773 11.1406C174.398 11.1406 175.797 11.4766 176.969 12.1484C178.141 12.8203 179.125 13.6953 179.922 14.7734C181.516 16.8984 182.367 19.4453 182.477 22.4141C182.477 26.0078 181.547 29.1562 179.688 31.8594C178.438 33.6719 176.812 34.9453 174.812 35.6797C173.812 36.0547 172.719 36.2422 171.531 36.2422C168.859 36.2422 166.617 35.4609 164.805 33.8984V44.9375C165.617 45.0156 166.266 45.0859 166.75 45.1484C167.625 45.2578 168.062 45.6641 168.062 46.3672C168.062 46.7734 167.922 47.0859 167.641 47.3047C167.359 47.5234 167.086 47.6328 166.82 47.6328H166.68C164.492 47.3359 162.391 47.1875 160.375 47.1875C158.359 47.1875 156.312 47.3984 154.234 47.8203H154.047C153.688 47.8203 153.391 47.6953 153.156 47.4453C152.922 47.2109 152.805 46.9375 152.805 46.625C152.805 45.9531 153.141 45.5469 153.812 45.4062C154.75 45.2188 155.633 45.0781 156.461 44.9844V14.1172ZM194.898 14.0234C190.789 15.5078 188.734 18.625 188.734 23.375C188.734 26.3594 189.766 28.8594 191.828 30.875C192.469 31.5 193.203 32.0234 194.031 32.4453C192.688 30.4453 192.016 27.7109 192.016 24.2422C192.016 21.7891 192.195 19.9609 192.555 18.7578C193.117 16.8516 193.898 15.2734 194.898 14.0234ZM194.5 23.2344C196.25 23.7812 198.258 24.0547 200.523 24.0547C202.789 24.0547 204.992 23.5781 207.133 22.625V22.2266C207.133 18.4453 205.922 15.8359 203.5 14.3984C202.656 13.8984 201.641 13.5625 200.453 13.3906C196.641 13.8281 194.656 17.1094 194.5 23.2344ZM209.57 22.1797L209.523 23.5391C209.367 24.8359 207.305 25.7578 203.336 26.3047C202.07 26.4766 200.727 26.5625 199.305 26.5625C197.898 26.5625 196.312 26.3203 194.547 25.8359C194.891 29.3828 196.078 31.7812 198.109 33.0312C198.859 33.4844 199.594 33.7109 200.312 33.7109C201.047 33.7109 201.664 33.6641 202.164 33.5703C202.664 33.4609 203.156 33.3125 203.641 33.125C204.734 32.6719 205.5 32.125 205.938 31.4844C206.203 31.1719 206.508 31.0156 206.852 31.0156C207.211 31.0156 207.516 31.1484 207.766 31.4141C208.016 31.6641 208.141 31.9531 208.141 32.2812C208.141 32.5938 208.039 32.8438 207.836 33.0312C207.164 34.0781 205.914 34.9062 204.086 35.5156C200.695 36.625 197.438 36.5312 194.312 35.2344C191.031 33.8906 188.703 31.625 187.328 28.4375C186.641 26.875 186.297 25.1484 186.297 23.2578C186.297 21.3516 186.594 19.625 187.188 18.0781C187.781 16.5156 188.625 15.2031 189.719 14.1406C191.953 11.9531 195.039 10.8594 198.977 10.8594C206.039 11.1562 209.57 14.9297 209.57 22.1797ZM230.875 17.3281C230.438 16.0156 229.547 14.9766 228.203 14.2109C227.031 13.5391 225.805 13.2031 224.523 13.2031C223.242 13.2031 222.188 13.375 221.359 13.7188C220.531 14.0469 219.805 14.5 219.18 15.0781C218.555 15.6406 218.016 16.3047 217.562 17.0703C217.125 17.8203 216.766 18.6094 216.484 19.4375C215.953 21.0312 215.688 22.5703 215.688 24.0547C215.703 25.5234 215.859 26.7891 216.156 27.8516C216.469 28.8984 216.922 29.8281 217.516 30.6406C218.844 32.4531 220.586 33.3594 222.742 33.3594C224.602 33.3594 226.25 32.4922 227.688 30.7578C228.766 29.4297 229.617 27.75 230.242 25.7188C230.758 24.0156 230.969 22.8672 230.875 22.2734V17.3281ZM233.359 32.9844C234.453 32.75 235.586 32.5938 236.758 32.5156V3.52344C235.961 3.64844 234.891 3.71094 233.547 3.71094H233.359V32.9844ZM229.469 1.0625C230.031 1.10938 230.672 1.15625 231.391 1.20312C232.109 1.23438 233.078 1.25 234.297 1.25C235.516 1.25 236.656 1.125 237.719 0.875H238.023C238.383 0.875 238.672 1 238.891 1.25C239.109 1.48438 239.219 1.75781 239.219 2.07031V32.3516H239.688C240.781 32.3516 241.547 32.375 241.984 32.4219C242.438 32.4688 242.766 32.6094 242.969 32.8438C243.188 33.0781 243.297 33.3672 243.297 33.7109C243.297 34.0547 243.156 34.3438 242.875 34.5781C242.609 34.7969 242.336 34.9062 242.055 34.9062H241.961C241.18 34.8438 240.352 34.8125 239.477 34.8125C238.617 34.8125 237.75 34.8594 236.875 34.9531C236 35.0469 235.234 35.1484 234.578 35.2578C233.938 35.3828 233.422 35.4922 233.031 35.5859C232.656 35.6797 232.453 35.7344 232.422 35.75C232.391 35.7656 232.344 35.7734 232.281 35.7734H232.117C231.758 35.7734 231.461 35.6406 231.227 35.375C230.992 35.125 230.875 34.8438 230.875 34.5312V30.5469C229.719 32.9531 227.891 34.5781 225.391 35.4219C224.562 35.6875 223.547 35.8203 222.344 35.8203C221.156 35.8203 219.977 35.5156 218.805 34.9062C217.633 34.2969 216.641 33.4844 215.828 32.4688C214.141 30.375 213.281 27.75 213.25 24.5938C213.25 20.8594 214.156 17.6797 215.969 15.0547C217.922 12.1953 220.664 10.7656 224.195 10.7656C226.852 10.7656 229.078 11.5312 230.875 13.0625V3.61719C230.875 3.61719 229.688 3.51562 227.312 3.3125C227 3.26562 226.734 3.125 226.516 2.89062C226.312 2.65625 226.211 2.375 226.211 2.04688C226.211 1.71875 226.336 1.44531 226.586 1.22656C226.852 0.992188 227.141 0.875 227.453 0.875H227.594C227.609 0.875 227.789 0.898438 228.133 0.945312C228.477 0.976562 228.922 1.01562 229.469 1.0625ZM255.133 14.5625C254.336 14.6875 253.266 14.75 251.922 14.75H251.734V32.3984C252.031 32.3672 252.32 32.3516 252.602 32.3516C253.164 32.3516 253.656 32.3516 254.078 32.3516C254.5 32.3516 254.852 32.3672 255.133 32.3984V14.5625ZM254.852 4.76562C254.852 4.28125 254.68 3.875 254.336 3.54688C254.008 3.20312 253.602 3.03125 253.117 3.03125C252.633 3.03125 252.227 3.20312 251.898 3.54688C251.57 3.875 251.406 4.28125 251.406 4.76562C251.406 5.25 251.57 5.65625 251.898 5.98438C252.227 6.3125 252.633 6.47656 253.117 6.47656C253.602 6.47656 254.008 6.3125 254.336 5.98438C254.68 5.65625 254.852 5.25 254.852 4.76562ZM260.711 35.5859C258.133 35.0703 255.727 34.8125 253.492 34.8125C251.258 34.8125 248.852 35.0703 246.273 35.5859C245.914 35.5859 245.617 35.4531 245.383 35.1875C245.164 34.9219 245.055 34.6406 245.055 34.3438C245.055 34.0469 245.141 33.7812 245.312 33.5469C245.5 33.3125 245.797 33.1562 246.203 33.0781C246.625 32.9844 247.109 32.9062 247.656 32.8438C248.219 32.7656 248.766 32.6875 249.297 32.6094V14.6562L245.688 14.3516C245.375 14.3047 245.117 14.1641 244.914 13.9297C244.727 13.6953 244.633 13.4062 244.633 13.0625C244.633 12.7031 244.773 12.4219 245.055 12.2188C245.336 12.0156 245.609 11.9141 245.875 11.9141H246.016C246.031 11.9141 246.211 11.9375 246.555 11.9844C246.898 12.0156 247.344 12.0547 247.891 12.1016C249.375 12.2266 250.734 12.2891 251.969 12.2891C253.688 12.2891 255.078 12.1641 256.141 11.9141H256.398C256.758 11.9141 257.055 12.0391 257.289 12.2891C257.523 12.5234 257.641 12.7969 257.641 13.1094L257.594 32.6094C258.141 32.6875 258.688 32.7656 259.234 32.8438C259.797 32.9062 260.297 32.9844 260.734 33.0781C261.547 33.2344 261.953 33.6484 261.953 34.3203C261.953 34.6797 261.82 34.9766 261.555 35.2109C261.289 35.4609 261.008 35.5859 260.711 35.5859ZM257.312 4.76562C257.312 5.9375 256.906 6.92188 256.094 7.71875C255.25 8.53125 254.258 8.9375 253.117 8.9375C251.961 8.9375 250.977 8.53125 250.164 7.71875C249.352 6.90625 248.945 5.92188 248.945 4.76562C248.945 3.60938 249.352 2.625 250.164 1.8125C250.977 1 251.961 0.59375 253.117 0.59375C254.258 0.59375 255.25 1 256.094 1.8125C256.906 2.60938 257.312 3.59375 257.312 4.76562ZM280.141 26.7969C280.078 26.2656 280.047 25.7031 280.047 25.1094H279.18C276.617 25.1094 274.102 25.5781 271.633 26.5156C268.477 27.7031 266.898 29.3984 266.898 31.6016C266.898 32.4141 267.266 33.0469 268 33.5C268.609 33.8594 269.406 34.0391 270.391 34.0391C271.375 34.0391 272.359 33.8281 273.344 33.4062C274.344 32.9688 275.266 32.4062 276.109 31.7188C277.609 30.4688 278.953 28.8281 280.141 26.7969ZM285.789 32.6094C285.836 32.1406 285.859 31.2031 285.859 29.7969C285.859 28.3906 285.828 27.0547 285.766 25.7891C285.719 24.5078 285.602 23.2734 285.414 22.0859C285.227 20.8984 284.945 19.7812 284.57 18.7344C284.195 17.6875 283.688 16.7812 283.047 16.0156C281.625 14.3281 279.648 13.4844 277.117 13.4844C277.07 13.4844 277.031 13.5 277 13.5312C276.969 13.5469 276.93 13.5547 276.883 13.5547H276.977C279.492 14.9141 281.125 17.1719 281.875 20.3281C282.297 22.0625 282.523 23.7109 282.555 25.2734C282.602 26.8203 282.625 28.0391 282.625 28.9297C282.625 30.3359 282.562 31.75 282.438 33.1719C283.562 32.9375 284.68 32.75 285.789 32.6094ZM289.727 32.3516L291.414 32.3984C291.758 32.4297 292.031 32.5625 292.234 32.7969C292.453 33.0312 292.562 33.3203 292.562 33.6641C292.562 33.9922 292.445 34.2812 292.211 34.5312C291.992 34.7812 291.711 34.9062 291.367 34.9062H291.273C291.008 34.875 290.734 34.8594 290.453 34.8594H289.633C286.773 34.8594 284.008 35.2422 281.336 36.0078L281.008 36.0547C280.648 36.0547 280.352 35.9141 280.117 35.6328C279.898 35.3672 279.789 35.0938 279.789 34.8125V34.625C279.789 34.5938 279.828 34.2812 279.906 33.6875C279.984 33.0781 280.062 32.2344 280.141 31.1562C276.969 34.7031 273.672 36.4766 270.25 36.4766C268.672 36.4766 267.328 36.0391 266.219 35.1641C265.031 34.2422 264.438 33.125 264.438 31.8125C264.438 30.5 264.688 29.3984 265.188 28.5078C265.703 27.6172 266.375 26.8438 267.203 26.1875C268.031 25.5156 268.969 24.9609 270.016 24.5234C271.078 24.0703 272.156 23.7031 273.25 23.4219C275.281 22.9219 277.258 22.6719 279.18 22.6719H279.742C279.742 20.6875 279.109 18.9531 277.844 17.4688C276.5 15.9062 274.867 15.125 272.945 15.125C271.508 15.125 270.164 15.8594 268.914 17.3281C267.695 18.75 267.086 20.2422 267.086 21.8047C267.086 22.1172 266.953 22.3828 266.688 22.6016C266.438 22.8047 266.148 22.9062 265.82 22.9062C265.492 22.9062 265.203 22.7812 264.953 22.5312C264.703 22.2656 264.578 21.8672 264.578 21.3359C264.578 20.8047 264.711 20.1328 264.977 19.3203C265.242 18.4922 265.625 17.6875 266.125 16.9062C266.641 16.1094 267.258 15.3594 267.977 14.6562C268.711 13.9531 269.547 13.3281 270.484 12.7812C272.484 11.625 274.516 11.0469 276.578 11.0469C278.656 11.0469 280.312 11.3203 281.547 11.8672C282.797 12.4141 283.836 13.1562 284.664 14.0938C285.508 15.0312 286.172 16.1172 286.656 17.3516C287.141 18.5859 287.508 19.8906 287.758 21.2656C288.148 23.4219 288.344 26.1797 288.344 29.5391L288.297 32.3984L289.727 32.3516Z" fill="black"/>
</svg>
